{
    "asset" : {
        "generator" : "Khronos glTF Blender I/O v1.5.17",
        "version" : "2.0"
    },
    "scene" : 0,
    "scenes" : [
        {
            "extras" : {
                "glTF2ExportSettings" : {
                    "export_animations" : 1,
                    "export_cameras" : 0,
                    "export_colors" : 1,
                    "export_extras" : 1,
                    "export_force_sampling" : 0,
                    "export_format" : "GLTF_EMBEDDED",
                    "export_image_format" : "AUTO",
                    "export_lights" : 0,
                    "export_morph" : 1,
                    "export_normals" : 1,
                    "export_skins" : 1,
                    "export_texcoords" : 1,
                    "export_yup" : 1,
                    "use_selection" : 1
                }
            },
            "name" : "Scene",
            "nodes" : [
                0
            ]
        }
    ],
    "nodes" : [
        {
            "extras" : {
                "sparkar_optimization" : {
                    "InvertedReducePercentage" : 0
                },
                "spark_blender_addon" : 1
            },
            "mesh" : 0,
            "name" : "Icosphere",
            "scale" : [
                0.3942183256149292,
                0.3942183256149292,
                0.3942183256149292
            ]
        }
    ],
    "materials" : [
        {
            "doubleSided" : true,
            "name" : "sea",
            "pbrMetallicRoughness" : {
                "baseColorFactor" : [
                    0.8879233002662659,
                    0.0056052678264677525,
                    0.162029430270195,
                    1
                ],
                "metallicFactor" : 0,
                "roughnessFactor" : 0.5
            }
        },
        {
            "doubleSided" : true,
            "name" : "beach",
            "pbrMetallicRoughness" : {
                "baseColorFactor" : [
                    1,
                    0.08437611162662506,
                    0,
                    1
                ],
                "metallicFactor" : 0,
                "roughnessFactor" : 0.5
            }
        },
        {
            "doubleSided" : true,
            "name" : "grass",
            "pbrMetallicRoughness" : {
                "baseColorFactor" : [
                    0.9559736847877502,
                    0.3185468018054962,
                    0.0015176571905612946,
                    1
                ],
                "metallicFactor" : 0,
                "roughnessFactor" : 0.5
            }
        },
        {
            "doubleSided" : true,
            "name" : "mountain",
            "pbrMetallicRoughness" : {
                "baseColorFactor" : [
                    1,
                    0.5577026605606079,
                    0.6924652457237244,
                    1
                ],
                "metallicFactor" : 0,
                "roughnessFactor" : 0.5
            }
        }
    ],
    "meshes" : [
        {
            "name" : "Icosphere",
            "primitives" : [
                {
                    "attributes" : {
                        "POSITION" : 0,
                        "NORMAL" : 1,
                        "TEXCOORD_0" : 2
                    },
                    "indices" : 3,
                    "material" : 0
                },
                {
                    "attributes" : {
                        "POSITION" : 4,
                        "NORMAL" : 5,
                        "TEXCOORD_0" : 6
                    },
                    "indices" : 7,
                    "material" : 1
                },
                {
                    "attributes" : {
                        "POSITION" : 8,
                        "NORMAL" : 9,
                        "TEXCOORD_0" : 10
                    },
                    "indices" : 11,
                    "material" : 2
                },
                {
                    "attributes" : {
                        "POSITION" : 12,
                        "NORMAL" : 13,
                        "TEXCOORD_0" : 14
                    },
                    "indices" : 15,
                    "material" : 3
                }
            ]
        }
    ],
    "accessors" : [
        {
            "bufferView" : 0,
            "componentType" : 5126,
            "count" : 2304,
            "max" : [
                4.882588863372803,
                4.876526832580566,
                4.951523780822754
            ],
            "min" : [
                -5.050985813140869,
                -5.125690937042236,
                -5.053989887237549
            ],
            "type" : "VEC3"
        },
        {
            "bufferView" : 1,
            "componentType" : 5126,
            "count" : 2304,
            "type" : "VEC3"
        },
        {
            "bufferView" : 2,
            "componentType" : 5126,
            "count" : 2304,
            "type" : "VEC2"
        },
        {
            "bufferView" : 3,
            "componentType" : 5123,
            "count" : 2304,
            "type" : "SCALAR"
        },
        {
            "bufferView" : 4,
            "componentType" : 5126,
            "count" : 625,
            "max" : [
                5.266798973083496,
                5.447100639343262,
                5.490683555603027
            ],
            "min" : [
                -5.265107154846191,
                -5.31721305847168,
                -4.404003620147705
            ],
            "type" : "VEC3"
        },
        {
            "bufferView" : 5,
            "componentType" : 5126,
            "count" : 625,
            "type" : "VEC3"
        },
        {
            "bufferView" : 6,
            "componentType" : 5126,
            "count" : 625,
            "type" : "VEC2"
        },
        {
            "bufferView" : 7,
            "componentType" : 5123,
            "count" : 897,
            "type" : "SCALAR"
        },
        {
            "bufferView" : 8,
            "componentType" : 5126,
            "count" : 1236,
            "max" : [
                5.136620998382568,
                5.4330034255981445,
                5.490683555603027
            ],
            "min" : [
                -5.265107154846191,
                -5.31721305847168,
                -4.404003620147705
            ],
            "type" : "VEC3"
        },
        {
            "bufferView" : 9,
            "componentType" : 5126,
            "count" : 1236,
            "type" : "VEC3"
        },
        {
            "bufferView" : 10,
            "componentType" : 5126,
            "count" : 1236,
            "type" : "VEC2"
        },
        {
            "bufferView" : 11,
            "componentType" : 5123,
            "count" : 1236,
            "type" : "SCALAR"
        },
        {
            "bufferView" : 12,
            "componentType" : 5126,
            "count" : 219,
            "max" : [
                5.501529693603516,
                5.447100639343262,
                5.490683555603027
            ],
            "min" : [
                -4.396841526031494,
                -1.712989330291748,
                -2.1272037029266357
            ],
            "type" : "VEC3"
        },
        {
            "bufferView" : 13,
            "componentType" : 5126,
            "count" : 219,
            "type" : "VEC3"
        },
        {
            "bufferView" : 14,
            "componentType" : 5126,
            "count" : 219,
            "type" : "VEC2"
        },
        {
            "bufferView" : 15,
            "componentType" : 5123,
            "count" : 219,
            "type" : "SCALAR"
        }
    ],
    "bufferViews" : [
        {
            "buffer" : 0,
            "byteLength" : 27648,
            "byteOffset" : 0
        },
        {
            "buffer" : 0,
            "byteLength" : 27648,
            "byteOffset" : 27648
        },
        {
            "buffer" : 0,
            "byteLength" : 18432,
            "byteOffset" : 55296
        },
        {
            "buffer" : 0,
            "byteLength" : 4608,
            "byteOffset" : 73728
        },
        {
            "buffer" : 0,
            "byteLength" : 7500,
            "byteOffset" : 78336
        },
        {
            "buffer" : 0,
            "byteLength" : 7500,
            "byteOffset" : 85836
        },
        {
            "buffer" : 0,
            "byteLength" : 5000,
            "byteOffset" : 93336
        },
        {
            "buffer" : 0,
            "byteLength" : 1794,
            "byteOffset" : 98336
        },
        {
            "buffer" : 0,
            "byteLength" : 14832,
            "byteOffset" : 100132
        },
        {
            "buffer" : 0,
            "byteLength" : 14832,
            "byteOffset" : 114964
        },
        {
            "buffer" : 0,
            "byteLength" : 9888,
            "byteOffset" : 129796
        },
        {
            "buffer" : 0,
            "byteLength" : 2472,
            "byteOffset" : 139684
        },
        {
            "buffer" : 0,
            "byteLength" : 2628,
            "byteOffset" : 142156
        },
        {
            "buffer" : 0,
            "byteLength" : 2628,
            "byteOffset" : 144784
        },
        {
            "buffer" : 0,
            "byteLength" : 1752,
            "byteOffset" : 147412
        },
        {
            "buffer" : 0,
            "byteLength" : 438,
            "byteOffset" : 149164
        }
    ],
    "buffers" : [
        {
            "byteLength" : 149604,
            "uri" : "data:application/octet-stream;base64,"
        }
    ]
}
