{
    "asset" : {
        "generator" : "Khronos glTF Blender I/O v1.5.17",
        "version" : "2.0"
    },
    "scene" : 0,
    "scenes" : [
        {
            "extras" : {
                "glTF2ExportSettings" : {
                    "export_animations" : 1,
                    "export_cameras" : 0,
                    "export_colors" : 1,
                    "export_extras" : 1,
                    "export_force_sampling" : 0,
                    "export_format" : "GLTF_EMBEDDED",
                    "export_image_format" : "AUTO",
                    "export_lights" : 0,
                    "export_morph" : 1,
                    "export_normals" : 1,
                    "export_skins" : 1,
                    "export_texcoords" : 1,
                    "export_yup" : 1,
                    "use_selection" : 1
                }
            },
            "name" : "Scene",
            "nodes" : [
                0
            ]
        }
    ],
    "nodes" : [
        {
            "extras" : {
                "sparkar_optimization" : {
                    "InvertedReducePercentage" : 0
                },
                "spark_blender_addon" : 1
            },
            "mesh" : 0,
            "name" : "Poste",
            "scale" : [
                0.5828450322151184,
                0.5828450322151184,
                0.5828450322151184
            ]
        }
    ],
    "materials" : [
        {
            "doubleSided" : true,
            "name" : "Material",
            "pbrMetallicRoughness" : {
                "baseColorFactor" : [
                    0.19120179116725922,
                    0.05780541151762009,
                    0.015996301546692848,
                    1
                ],
                "metallicFactor" : 0,
                "roughnessFactor" : 0.4000000059604645
            }
        },
        {
            "doubleSided" : true,
            "name" : "Prego",
            "pbrMetallicRoughness" : {
                "baseColorFactor" : [
                    0.5452250838279724,
                    0.5206447243690491,
                    0.5704708099365234,
                    1
                ],
                "metallicFactor" : 0,
                "roughnessFactor" : 0.5
            }
        },
        {
            "doubleSided" : true,
            "name" : "Material.001",
            "pbrMetallicRoughness" : {
                "baseColorFactor" : [
                    0.9559736847877502,
                    0.3185468018054962,
                    0.0015176571905612946,
                    1
                ],
                "metallicFactor" : 0,
                "roughnessFactor" : 0.5
            }
        },
        {
            "doubleSided" : true,
            "name" : "Material.003",
            "pbrMetallicRoughness" : {
                "baseColorFactor" : [
                    0,
                    0,
                    0,
                    1
                ],
                "metallicFactor" : 0,
                "roughnessFactor" : 0.5
            }
        }
    ],
    "meshes" : [
        {
            "name" : "Cube.001",
            "primitives" : [
                {
                    "attributes" : {
                        "POSITION" : 0,
                        "NORMAL" : 1,
                        "TEXCOORD_0" : 2
                    },
                    "indices" : 3,
                    "material" : 0
                },
                {
                    "attributes" : {
                        "POSITION" : 4,
                        "NORMAL" : 5,
                        "TEXCOORD_0" : 6
                    },
                    "indices" : 7,
                    "material" : 1
                },
                {
                    "attributes" : {
                        "POSITION" : 8,
                        "NORMAL" : 9,
                        "TEXCOORD_0" : 10
                    },
                    "indices" : 11,
                    "material" : 2
                },
                {
                    "attributes" : {
                        "POSITION" : 12,
                        "NORMAL" : 13,
                        "TEXCOORD_0" : 14
                    },
                    "indices" : 15,
                    "material" : 3
                }
            ]
        }
    ],
    "accessors" : [
        {
            "bufferView" : 0,
            "componentType" : 5126,
            "count" : 52,
            "max" : [
                1.1406426429748535,
                7.423889636993408,
                1
            ],
            "min" : [
                -1.329798698425293,
                0,
                -2.644911050796509
            ],
            "type" : "VEC3"
        },
        {
            "bufferView" : 1,
            "componentType" : 5126,
            "count" : 52,
            "type" : "VEC3"
        },
        {
            "bufferView" : 2,
            "componentType" : 5126,
            "count" : 52,
            "type" : "VEC2"
        },
        {
            "bufferView" : 3,
            "componentType" : 5123,
            "count" : 72,
            "type" : "SCALAR"
        },
        {
            "bufferView" : 4,
            "componentType" : 5126,
            "count" : 1984,
            "max" : [
                1.329798698425293,
                6.212653160095215,
                0.2322864830493927
            ],
            "min" : [
                0.8652259111404419,
                5.748080253601074,
                -0.23228639364242554
            ],
            "type" : "VEC3"
        },
        {
            "bufferView" : 5,
            "componentType" : 5126,
            "count" : 1984,
            "type" : "VEC3"
        },
        {
            "bufferView" : 6,
            "componentType" : 5126,
            "count" : 1984,
            "type" : "VEC2"
        },
        {
            "bufferView" : 7,
            "componentType" : 5123,
            "count" : 2880,
            "type" : "SCALAR"
        },
        {
            "bufferView" : 8,
            "componentType" : 5126,
            "count" : 100,
            "max" : [
                1.1406426429748535,
                6.555998802185059,
                2.644911050796509
            ],
            "min" : [
                0.4068586826324463,
                3.092419147491455,
                -2.644911050796509
            ],
            "type" : "VEC3"
        },
        {
            "bufferView" : 9,
            "componentType" : 5126,
            "count" : 100,
            "type" : "VEC3"
        },
        {
            "bufferView" : 10,
            "componentType" : 5126,
            "count" : 100,
            "type" : "VEC2"
        },
        {
            "bufferView" : 11,
            "componentType" : 5123,
            "count" : 168,
            "type" : "SCALAR"
        },
        {
            "bufferView" : 12,
            "componentType" : 5126,
            "count" : 3632,
            "max" : [
                1.1607189178466797,
                5.423583984375,
                0.7794010043144226
            ],
            "min" : [
                1.0878795385360718,
                5.07576847076416,
                -0.8616495132446289
            ],
            "type" : "VEC3"
        },
        {
            "bufferView" : 13,
            "componentType" : 5126,
            "count" : 3632,
            "type" : "VEC3"
        },
        {
            "bufferView" : 14,
            "componentType" : 5126,
            "count" : 3632,
            "type" : "VEC2"
        },
        {
            "bufferView" : 15,
            "componentType" : 5123,
            "count" : 5436,
            "type" : "SCALAR"
        }
    ],
    "bufferViews" : [
        {
            "buffer" : 0,
            "byteLength" : 624,
            "byteOffset" : 0
        },
        {
            "buffer" : 0,
            "byteLength" : 624,
            "byteOffset" : 624
        },
        {
            "buffer" : 0,
            "byteLength" : 416,
            "byteOffset" : 1248
        },
        {
            "buffer" : 0,
            "byteLength" : 144,
            "byteOffset" : 1664
        },
        {
            "buffer" : 0,
            "byteLength" : 23808,
            "byteOffset" : 1808
        },
        {
            "buffer" : 0,
            "byteLength" : 23808,
            "byteOffset" : 25616
        },
        {
            "buffer" : 0,
            "byteLength" : 15872,
            "byteOffset" : 49424
        },
        {
            "buffer" : 0,
            "byteLength" : 5760,
            "byteOffset" : 65296
        },
        {
            "buffer" : 0,
            "byteLength" : 1200,
            "byteOffset" : 71056
        },
        {
            "buffer" : 0,
            "byteLength" : 1200,
            "byteOffset" : 72256
        },
        {
            "buffer" : 0,
            "byteLength" : 800,
            "byteOffset" : 73456
        },
        {
            "buffer" : 0,
            "byteLength" : 336,
            "byteOffset" : 74256
        },
        {
            "buffer" : 0,
            "byteLength" : 43584,
            "byteOffset" : 74592
        },
        {
            "buffer" : 0,
            "byteLength" : 43584,
            "byteOffset" : 118176
        },
        {
            "buffer" : 0,
            "byteLength" : 29056,
            "byteOffset" : 161760
        },
        {
            "buffer" : 0,
            "byteLength" : 10872,
            "byteOffset" : 190816
        }
    ],
    "buffers" : [
        {
            "byteLength" : 201688,
            "uri" : "data:application/octet-stream;base64,"
        }
    ]
}
