{
    "asset" : {
        "generator" : "Khronos glTF Blender I/O v1.5.17",
        "version" : "2.0"
    },
    "scene" : 0,
    "scenes" : [
        {
            "extras" : {
                "glTF2ExportSettings" : {
                    "export_animations" : 1,
                    "export_cameras" : 0,
                    "export_colors" : 1,
                    "export_extras" : 1,
                    "export_force_sampling" : 0,
                    "export_format" : "GLTF_EMBEDDED",
                    "export_image_format" : "AUTO",
                    "export_lights" : 0,
                    "export_morph" : 1,
                    "export_normals" : 1,
                    "export_skins" : 1,
                    "export_texcoords" : 1,
                    "export_yup" : 1,
                    "use_selection" : 1
                }
            },
            "name" : "Scene",
            "nodes" : [
                1
            ]
        }
    ],
    "nodes" : [
        {
            "extras" : {
                "sparkar_optimization" : {
                    "InvertedReducePercentage" : 0
                },
                "spark_blender_addon" : 1
            },
            "mesh" : 0,
            "name" : "Icosphere.015",
            "scale" : [
                0.21685177087783813,
                0.21685177087783813,
                0.21685177087783813
            ],
            "translation" : [
                -12.589466094970703,
                0.8213587403297424,
                21.643476486206055
            ]
        },
        {
            "children" : [
                0
            ],
            "extras" : {},
            "name" : "Cube.002",
            "translation" : [
                12.589466094970703,
                -0.8213587403297424,
                -21.643476486206055
            ]
        }
    ],
    "materials" : [
        {
            "doubleSided" : true,
            "name" : "brightgreencastanha",
            "pbrMetallicRoughness" : {
                "baseColorFactor" : [
                    0.2898998558521271,
                    0.5014820098876953,
                    0.01515420712530613,
                    1
                ],
                "metallicFactor" : 0,
                "roughnessFactor" : 0.7772727012634277
            }
        },
        {
            "doubleSided" : true,
            "name" : "troncocastanha",
            "pbrMetallicRoughness" : {
                "baseColorFactor" : [
                    0.19168764352798462,
                    0.057074856013059616,
                    0.016220904886722565,
                    1
                ],
                "metallicFactor" : 0,
                "roughnessFactor" : 0.8045454621315002
            }
        },
        {
            "doubleSided" : true,
            "name" : "greencastanha",
            "pbrMetallicRoughness" : {
                "baseColorFactor" : [
                    0.018187643960118294,
                    0.13619820773601532,
                    0.06160343810915947,
                    1
                ],
                "metallicFactor" : 0,
                "roughnessFactor" : 0.699999988079071
            }
        }
    ],
    "meshes" : [
        {
            "name" : "Icosphere.016",
            "primitives" : [
                {
                    "attributes" : {
                        "POSITION" : 0,
                        "NORMAL" : 1,
                        "TEXCOORD_0" : 2
                    },
                    "indices" : 3,
                    "material" : 0
                },
                {
                    "attributes" : {
                        "POSITION" : 4,
                        "NORMAL" : 5,
                        "TEXCOORD_0" : 6
                    },
                    "indices" : 7,
                    "material" : 1
                },
                {
                    "attributes" : {
                        "POSITION" : 8,
                        "NORMAL" : 9,
                        "TEXCOORD_0" : 10
                    },
                    "indices" : 11,
                    "material" : 2
                }
            ]
        }
    ],
    "accessors" : [
        {
            "bufferView" : 0,
            "componentType" : 5126,
            "count" : 1200,
            "max" : [
                5.644258499145508,
                19.93770408630371,
                3.1613030433654785
            ],
            "min" : [
                -4.328629493713379,
                10.480161666870117,
                -5.1369547843933105
            ],
            "type" : "VEC3"
        },
        {
            "bufferView" : 1,
            "componentType" : 5126,
            "count" : 1200,
            "type" : "VEC3"
        },
        {
            "bufferView" : 2,
            "componentType" : 5126,
            "count" : 1200,
            "type" : "VEC2"
        },
        {
            "bufferView" : 3,
            "componentType" : 5123,
            "count" : 1200,
            "type" : "SCALAR"
        },
        {
            "bufferView" : 4,
            "componentType" : 5126,
            "count" : 2522,
            "max" : [
                4.760346412658691,
                18.962858200073242,
                2.1441688537597656
            ],
            "min" : [
                -3.76185941696167,
                -1.9073486328125e-06,
                -3.535433053970337
            ],
            "type" : "VEC3"
        },
        {
            "bufferView" : 5,
            "componentType" : 5126,
            "count" : 2522,
            "type" : "VEC3"
        },
        {
            "bufferView" : 6,
            "componentType" : 5126,
            "count" : 2522,
            "type" : "VEC2"
        },
        {
            "bufferView" : 7,
            "componentType" : 5123,
            "count" : 3756,
            "type" : "SCALAR"
        },
        {
            "bufferView" : 8,
            "componentType" : 5126,
            "count" : 1680,
            "max" : [
                5.124655723571777,
                20.28379249572754,
                3.500833034515381
            ],
            "min" : [
                -3.988961696624756,
                12.20291519165039,
                -4.362831115722656
            ],
            "type" : "VEC3"
        },
        {
            "bufferView" : 9,
            "componentType" : 5126,
            "count" : 1680,
            "type" : "VEC3"
        },
        {
            "bufferView" : 10,
            "componentType" : 5126,
            "count" : 1680,
            "type" : "VEC2"
        },
        {
            "bufferView" : 11,
            "componentType" : 5123,
            "count" : 1680,
            "type" : "SCALAR"
        }
    ],
    "bufferViews" : [
        {
            "buffer" : 0,
            "byteLength" : 14400,
            "byteOffset" : 0
        },
        {
            "buffer" : 0,
            "byteLength" : 14400,
            "byteOffset" : 14400
        },
        {
            "buffer" : 0,
            "byteLength" : 9600,
            "byteOffset" : 28800
        },
        {
            "buffer" : 0,
            "byteLength" : 2400,
            "byteOffset" : 38400
        },
        {
            "buffer" : 0,
            "byteLength" : 30264,
            "byteOffset" : 40800
        },
        {
            "buffer" : 0,
            "byteLength" : 30264,
            "byteOffset" : 71064
        },
        {
            "buffer" : 0,
            "byteLength" : 20176,
            "byteOffset" : 101328
        },
        {
            "buffer" : 0,
            "byteLength" : 7512,
            "byteOffset" : 121504
        },
        {
            "buffer" : 0,
            "byteLength" : 20160,
            "byteOffset" : 129016
        },
        {
            "buffer" : 0,
            "byteLength" : 20160,
            "byteOffset" : 149176
        },
        {
            "buffer" : 0,
            "byteLength" : 13440,
            "byteOffset" : 169336
        },
        {
            "buffer" : 0,
            "byteLength" : 3360,
            "byteOffset" : 182776
        }
    ],
    "buffers" : [
        {
            "byteLength" : 186136,
            "uri" : "data:application/octet-stream;base64,"
        }
    ]
}
