{
    "asset" : {
        "generator" : "Khronos glTF Blender I/O v1.5.17",
        "version" : "2.0"
    },
    "scene" : 0,
    "scenes" : [
        {
            "extras" : {
                "glTF2ExportSettings" : {
                    "export_animations" : 1,
                    "export_cameras" : 0,
                    "export_colors" : 1,
                    "export_extras" : 1,
                    "export_force_sampling" : 0,
                    "export_format" : "GLTF_EMBEDDED",
                    "export_image_format" : "AUTO",
                    "export_lights" : 0,
                    "export_morph" : 1,
                    "export_normals" : 1,
                    "export_skins" : 1,
                    "export_texcoords" : 1,
                    "export_yup" : 1,
                    "use_selection" : 1
                }
            },
            "name" : "Scene",
            "nodes" : [
                0
            ]
        }
    ],
    "nodes" : [
        {
            "extras" : {
                "sparkar_optimization" : {
                    "InvertedReducePercentage" : 0
                },
                "spark_blender_addon" : 1
            },
            "mesh" : 0,
            "name" : "Prego.003",
            "scale" : [
                0.1382630169391632,
                0.1382630169391632,
                0.1382630169391632
            ],
            "translation" : [
                0.7885551452636719,
                3.3648505210876465,
                0
            ]
        }
    ],
    "materials" : [
        {
            "doubleSided" : true,
            "name" : "Prego",
            "pbrMetallicRoughness" : {
                "baseColorFactor" : [
                    0.9551030993461609,
                    0.9114080667495728,
                    1,
                    1
                ],
                "metallicFactor" : 0,
                "roughnessFactor" : 0.5
            }
        },
        {
            "doubleSided" : true,
            "name" : "Material",
            "pbrMetallicRoughness" : {
                "baseColorFactor" : [
                    0.19120179116725922,
                    0.05780541151762009,
                    0.015996301546692848,
                    1
                ],
                "metallicFactor" : 0,
                "roughnessFactor" : 0.4000000059604645
            }
        },
        {
            "doubleSided" : true,
            "name" : "Material.001",
            "pbrMetallicRoughness" : {
                "baseColorFactor" : [
                    0.9559736847877502,
                    0.3185468018054962,
                    0.0015176571905612946,
                    1
                ],
                "metallicFactor" : 0,
                "roughnessFactor" : 0.5
            }
        }
    ],
    "meshes" : [
        {
            "name" : "Sphere.003",
            "primitives" : [
                {
                    "attributes" : {
                        "POSITION" : 0,
                        "NORMAL" : 1,
                        "TEXCOORD_0" : 2
                    },
                    "indices" : 3,
                    "material" : 0
                },
                {
                    "attributes" : {
                        "POSITION" : 4,
                        "NORMAL" : 5,
                        "TEXCOORD_0" : 6
                    },
                    "indices" : 7,
                    "material" : 1
                },
                {
                    "attributes" : {
                        "POSITION" : 8,
                        "NORMAL" : 9,
                        "TEXCOORD_0" : 10
                    },
                    "indices" : 11,
                    "material" : 2
                }
            ]
        }
    ],
    "accessors" : [
        {
            "bufferView" : 0,
            "componentType" : 5126,
            "count" : 55547,
            "max" : [
                1.000000238418579,
                1,
                6.503774166107178
            ],
            "min" : [
                -0.9999998211860657,
                -4.221502780914307,
                -7.123138427734375
            ],
            "type" : "VEC3"
        },
        {
            "bufferView" : 1,
            "componentType" : 5126,
            "count" : 55547,
            "type" : "VEC3"
        },
        {
            "bufferView" : 2,
            "componentType" : 5126,
            "count" : 55547,
            "type" : "VEC2"
        },
        {
            "bufferView" : 3,
            "componentType" : 5123,
            "count" : 83244,
            "type" : "SCALAR"
        },
        {
            "bufferView" : 4,
            "componentType" : 5126,
            "count" : 52,
            "max" : [
                0.18567991256713867,
                6.214408874511719,
                4.305030345916748
            ],
            "min" : [
                -10.44964599609375,
                -25.74566078186035,
                -11.386423110961914
            ],
            "type" : "VEC3"
        },
        {
            "bufferView" : 5,
            "componentType" : 5126,
            "count" : 52,
            "type" : "VEC3"
        },
        {
            "bufferView" : 6,
            "componentType" : 5126,
            "count" : 52,
            "type" : "VEC2"
        },
        {
            "bufferView" : 7,
            "componentType" : 5123,
            "count" : 72,
            "type" : "SCALAR"
        },
        {
            "bufferView" : 8,
            "componentType" : 5126,
            "count" : 100,
            "max" : [
                0.18567991256713867,
                2.478116989135742,
                11.386423110961914
            ],
            "min" : [
                -2.9732823371887207,
                -12.432701110839844,
                -11.386423110961914
            ],
            "type" : "VEC3"
        },
        {
            "bufferView" : 9,
            "componentType" : 5126,
            "count" : 100,
            "type" : "VEC3"
        },
        {
            "bufferView" : 10,
            "componentType" : 5126,
            "count" : 100,
            "type" : "VEC2"
        },
        {
            "bufferView" : 11,
            "componentType" : 5123,
            "count" : 168,
            "type" : "SCALAR"
        }
    ],
    "bufferViews" : [
        {
            "buffer" : 0,
            "byteLength" : 666564,
            "byteOffset" : 0
        },
        {
            "buffer" : 0,
            "byteLength" : 666564,
            "byteOffset" : 666564
        },
        {
            "buffer" : 0,
            "byteLength" : 444376,
            "byteOffset" : 1333128
        },
        {
            "buffer" : 0,
            "byteLength" : 166488,
            "byteOffset" : 1777504
        },
        {
            "buffer" : 0,
            "byteLength" : 624,
            "byteOffset" : 1943992
        },
        {
            "buffer" : 0,
            "byteLength" : 624,
            "byteOffset" : 1944616
        },
        {
            "buffer" : 0,
            "byteLength" : 416,
            "byteOffset" : 1945240
        },
        {
            "buffer" : 0,
            "byteLength" : 144,
            "byteOffset" : 1945656
        },
        {
            "buffer" : 0,
            "byteLength" : 1200,
            "byteOffset" : 1945800
        },
        {
            "buffer" : 0,
            "byteLength" : 1200,
            "byteOffset" : 1947000
        },
        {
            "buffer" : 0,
            "byteLength" : 800,
            "byteOffset" : 1948200
        },
        {
            "buffer" : 0,
            "byteLength" : 336,
            "byteOffset" : 1949000
        }
    ],
    "buffers" : [
        {
            "byteLength" : 1949336,
            "uri" : "data:application/octet-stream;base64,"
        }
    ]
}
