{
    "asset" : {
        "generator" : "Khronos glTF Blender I/O v1.5.17",
        "version" : "2.0"
    },
    "scene" : 0,
    "scenes" : [
        {
            "extras" : {
                "glTF2ExportSettings" : {
                    "export_animations" : 1,
                    "export_cameras" : 0,
                    "export_colors" : 1,
                    "export_extras" : 1,
                    "export_force_sampling" : 0,
                    "export_format" : "GLTF_EMBEDDED",
                    "export_image_format" : "AUTO",
                    "export_lights" : 0,
                    "export_morph" : 1,
                    "export_normals" : 1,
                    "export_skins" : 1,
                    "export_texcoords" : 1,
                    "export_yup" : 1,
                    "use_selection" : 1
                }
            },
            "name" : "Scene",
            "nodes" : [
                0
            ]
        }
    ],
    "nodes" : [
        {
            "extras" : {
                "sparkar_optimization" : {
                    "InvertedReducePercentage" : 0
                },
                "spark_blender_addon" : 1
            },
            "mesh" : 0,
            "name" : "Cube.014"
        }
    ],
    "materials" : [
        {
            "doubleSided" : true,
            "name" : "Roxo",
            "pbrMetallicRoughness" : {
                "baseColorFactor" : [
                    0.16826939582824707,
                    0.0069953883066773415,
                    0.20863690972328186,
                    1
                ],
                "metallicFactor" : 0,
                "roughnessFactor" : 0.4000000059604645
            }
        },
        {
            "doubleSided" : true,
            "name" : "Janelas.001",
            "pbrMetallicRoughness" : {
                "baseColorFactor" : [
                    0.2158605456352234,
                    0.8879232406616211,
                    1,
                    1
                ],
                "metallicFactor" : 0,
                "roughnessFactor" : 0.5
            }
        },
        {
            "doubleSided" : true,
            "name" : "Janelas",
            "pbrMetallicRoughness" : {
                "baseColorFactor" : [
                    0.5733059048652649,
                    0.8000000715255737,
                    0.725652813911438,
                    1
                ],
                "metallicFactor" : 0,
                "roughnessFactor" : 0.5
            }
        },
        {
            "doubleSided" : true,
            "name" : "Porta",
            "pbrMetallicRoughness" : {
                "baseColorFactor" : [
                    0.2158605456352234,
                    0.8879232406616211,
                    1,
                    1
                ],
                "metallicFactor" : 0,
                "roughnessFactor" : 0.5
            }
        }
    ],
    "meshes" : [
        {
            "name" : "Cube.029",
            "primitives" : [
                {
                    "attributes" : {
                        "POSITION" : 0,
                        "NORMAL" : 1,
                        "TEXCOORD_0" : 2
                    },
                    "indices" : 3,
                    "material" : 0
                },
                {
                    "attributes" : {
                        "POSITION" : 4,
                        "NORMAL" : 5,
                        "TEXCOORD_0" : 6
                    },
                    "indices" : 7,
                    "material" : 1
                },
                {
                    "attributes" : {
                        "POSITION" : 8,
                        "NORMAL" : 9,
                        "TEXCOORD_0" : 10
                    },
                    "indices" : 11,
                    "material" : 2
                },
                {
                    "attributes" : {
                        "POSITION" : 12,
                        "NORMAL" : 13,
                        "TEXCOORD_0" : 14
                    },
                    "indices" : 15,
                    "material" : 3
                }
            ]
        }
    ],
    "accessors" : [
        {
            "bufferView" : 0,
            "componentType" : 5126,
            "count" : 4094,
            "max" : [
                1.4225001335144043,
                4.324117183685303,
                0.7230809926986694
            ],
            "min" : [
                -1.4225001335144043,
                0,
                -0.7230827808380127
            ],
            "type" : "VEC3"
        },
        {
            "bufferView" : 1,
            "componentType" : 5126,
            "count" : 4094,
            "type" : "VEC3"
        },
        {
            "bufferView" : 2,
            "componentType" : 5126,
            "count" : 4094,
            "type" : "VEC2"
        },
        {
            "bufferView" : 3,
            "componentType" : 5123,
            "count" : 7737,
            "type" : "SCALAR"
        },
        {
            "bufferView" : 4,
            "componentType" : 5126,
            "count" : 224,
            "max" : [
                1.3628981113433838,
                4.076023578643799,
                0.6634799838066101
            ],
            "min" : [
                -1.3628981113433838,
                1.2423268556594849,
                -0.6634799838066101
            ],
            "type" : "VEC3"
        },
        {
            "bufferView" : 5,
            "componentType" : 5126,
            "count" : 224,
            "type" : "VEC3"
        },
        {
            "bufferView" : 6,
            "componentType" : 5126,
            "count" : 224,
            "type" : "VEC2"
        },
        {
            "bufferView" : 7,
            "componentType" : 5123,
            "count" : 336,
            "type" : "SCALAR"
        },
        {
            "bufferView" : 8,
            "componentType" : 5126,
            "count" : 63,
            "max" : [
                1.287055492401123,
                0.8957880139350891,
                0.5876387357711792
            ],
            "min" : [
                -1.287055492401123,
                0.19290238618850708,
                -0.5876370072364807
            ],
            "type" : "VEC3"
        },
        {
            "bufferView" : 9,
            "componentType" : 5126,
            "count" : 63,
            "type" : "VEC3"
        },
        {
            "bufferView" : 10,
            "componentType" : 5126,
            "count" : 63,
            "type" : "VEC2"
        },
        {
            "bufferView" : 11,
            "componentType" : 5123,
            "count" : 99,
            "type" : "SCALAR"
        },
        {
            "bufferView" : 12,
            "componentType" : 5126,
            "count" : 4,
            "max" : [
                0.20284733176231384,
                0.8953284621238708,
                0.42053818702697754
            ],
            "min" : [
                -0.20534241199493408,
                0.19290238618850708,
                0.42053818702697754
            ],
            "type" : "VEC3"
        },
        {
            "bufferView" : 13,
            "componentType" : 5126,
            "count" : 4,
            "type" : "VEC3"
        },
        {
            "bufferView" : 14,
            "componentType" : 5126,
            "count" : 4,
            "type" : "VEC2"
        },
        {
            "bufferView" : 15,
            "componentType" : 5123,
            "count" : 6,
            "type" : "SCALAR"
        }
    ],
    "bufferViews" : [
        {
            "buffer" : 0,
            "byteLength" : 49128,
            "byteOffset" : 0
        },
        {
            "buffer" : 0,
            "byteLength" : 49128,
            "byteOffset" : 49128
        },
        {
            "buffer" : 0,
            "byteLength" : 32752,
            "byteOffset" : 98256
        },
        {
            "buffer" : 0,
            "byteLength" : 15474,
            "byteOffset" : 131008
        },
        {
            "buffer" : 0,
            "byteLength" : 2688,
            "byteOffset" : 146484
        },
        {
            "buffer" : 0,
            "byteLength" : 2688,
            "byteOffset" : 149172
        },
        {
            "buffer" : 0,
            "byteLength" : 1792,
            "byteOffset" : 151860
        },
        {
            "buffer" : 0,
            "byteLength" : 672,
            "byteOffset" : 153652
        },
        {
            "buffer" : 0,
            "byteLength" : 756,
            "byteOffset" : 154324
        },
        {
            "buffer" : 0,
            "byteLength" : 756,
            "byteOffset" : 155080
        },
        {
            "buffer" : 0,
            "byteLength" : 504,
            "byteOffset" : 155836
        },
        {
            "buffer" : 0,
            "byteLength" : 198,
            "byteOffset" : 156340
        },
        {
            "buffer" : 0,
            "byteLength" : 48,
            "byteOffset" : 156540
        },
        {
            "buffer" : 0,
            "byteLength" : 48,
            "byteOffset" : 156588
        },
        {
            "buffer" : 0,
            "byteLength" : 32,
            "byteOffset" : 156636
        },
        {
            "buffer" : 0,
            "byteLength" : 12,
            "byteOffset" : 156668
        }
    ],
    "buffers" : [
        {
            "byteLength" : 156680,
            "uri" : "data:application/octet-stream;base64,"
        }
    ]
}
